#N canvas 0 0 756 679 10;
#N canvas 608 271 760 318 reverb_control 0;
#X obj -50 7 inlet~;
#X obj 3 9 inlet~;
#X obj -74 240 outlet~;
#X obj -11 243 outlet~;
#X obj -60 132 freeverb~;
#X msg 215 40 roomsize \$1;
#X msg 301 42 damping \$1;
#X msg 396 44 width \$1;
#X msg 471 38 wet \$1;
#X msg 545 47 dry \$1;
#X msg 137 38 freeze \$1;
#X msg 63 41 bypass \$1;
#X obj 60 7 r bypass_ct;
#X obj 138 7 r freeze_ct;
#X obj 221 10 r roomsize_ct;
#X obj 312 8 r damping_ct;
#X obj 402 9 r width_ct;
#X obj 480 13 r wet_ct;
#X obj 549 10 r dry_ct;
#X connect 0 0 4 0;
#X connect 1 0 4 1;
#X connect 4 0 2 0;
#X connect 4 1 3 0;
#X connect 5 0 4 0;
#X connect 6 0 4 0;
#X connect 7 0 4 0;
#X connect 8 0 4 0;
#X connect 9 0 4 0;
#X connect 10 0 4 0;
#X connect 11 0 4 0;
#X connect 12 0 11 0;
#X connect 13 0 10 0;
#X connect 14 0 5 0;
#X connect 15 0 6 0;
#X connect 16 0 7 0;
#X connect 17 0 8 0;
#X connect 18 0 9 0;
#X restore 304 293 pd reverb_control;
#X obj 341 339 dac~;
#X obj 340 235 pan~;
#X obj 487 74 * 10;
#X obj 487 107 - 30;
#X text 522 90 pan angle;
#X obj 156 145 *~ 0.2;
#X obj 279 185 tremolo;
#X text 305 9 freq;
#X text 384 8 shape (0-1);
#X text 469 10 pan position;
#X obj 195 105 line;
#X obj 45 24 inlet~;
#X obj 170 20 inlet;
#X obj 302 24 inlet;
#X obj 386 27 inlet;
#X obj 490 29 inlet;
#X obj 170 45 bng 15 250 50 0 empty empty empty 17 7 0 10 -262144 -1
-1;
#X text 168 1 damper;
#X msg 190 73 0 200;
#X obj 237 17 loadbang;
#X msg 237 73 0.1 100;
#X obj 115 18 inlet;
#X text 122 2 hit;
#X connect 0 0 1 0;
#X connect 0 1 1 1;
#X connect 2 0 0 0;
#X connect 2 1 0 1;
#X connect 3 0 4 0;
#X connect 4 0 2 1;
#X connect 6 0 7 0;
#X connect 7 0 2 0;
#X connect 11 0 6 1;
#X connect 12 0 6 0;
#X connect 13 0 17 0;
#X connect 14 0 7 1;
#X connect 15 0 7 2;
#X connect 16 0 3 0;
#X connect 17 0 19 0;
#X connect 19 0 11 0;
#X connect 20 0 21 0;
#X connect 21 0 11 0;
#X connect 22 0 21 0;
