#N canvas 404 152 478 308 10;
#X obj 148 25 inlet;
#X obj 144 230 outlet;
#X obj 148 91 moses;
#X obj 141 202 spigot 1;
#X msg 192 174 1;
#X msg 223 174 0;
#X obj 147 114 t b;
#X obj 198 112 t b b;
#X obj 147 139 delay;
#X obj 200 25 inlet;
#X obj 260 26 inlet;
#X connect 0 0 2 0;
#X connect 2 0 6 0;
#X connect 2 1 7 0;
#X connect 3 0 1 0;
#X connect 4 0 3 1;
#X connect 5 0 3 1;
#X connect 6 0 8 0;
#X connect 7 0 5 0;
#X connect 7 1 3 0;
#X connect 8 0 4 0;
#X connect 9 0 2 1;
#X connect 10 0 8 1;
