#N canvas 739 604 450 300 10;
#X obj -128 180 int;
#X obj -128 234 change -100;
#X obj -128 21 inlet;
#X obj -128 310 outlet;
#X text -88 88 Scaling to [0..1];
#X obj -128 103 / 100;
#X obj -128 158 * 4.99;
#X text -84 173 Limiting to 5 discrete steps;
#X obj -128 76 - 50;
#X floatatom -128 262 5 0 0 0 - - -;
#X obj -128 287 + 1;
#X obj -128 132 expr if($f1>0.99 \, 0.99 \, $f1);
#X obj -128 208 speedlim 50;
#X obj -128 48 average 50;
#X obj -19 21 inlet;
#X connect 0 0 12 0;
#X connect 1 0 9 0;
#X connect 2 0 13 0;
#X connect 5 0 11 0;
#X connect 6 0 0 0;
#X connect 8 0 5 0;
#X connect 9 0 10 0;
#X connect 10 0 3 0;
#X connect 11 0 6 0;
#X connect 12 0 1 0;
#X connect 13 0 8 0;
#X connect 14 0 13 1;
#X connect 14 0 12 1;
