#N canvas 688 352 566 507 10;
#X obj -300 449 +;
#X floatatom -6 379 5 0 0 0 - - -;
#X obj -401 34 t b f;
#X text -341 397 select nth \; element of \; the list;
#X text 32 9 root note for the \; scale (62 = D4);
#X floatatom -300 475 5 0 0 0 - - -;
#X text -267 7 scale;
#X text -363 10 note;
#X obj -300 500 outlet;
#X obj -401 9 inlet;
#X obj -305 9 inlet;
#X obj -7 14 inlet;
#X obj -400 407 packel 1;
#X text -210 71 major pentatonic;
#X text -203 96 minor pentatonic;
#X text -185 122 pelong balinese;
#X text -170 151 iwato japan;
#X text -161 181 japanese;
#X text -145 209 hirajoshi japan;
#X text -86 293 egyptian;
#X obj -305 37 route 0 1 2 3 4 5 6 7 8 9;
#X text -72 324 chinese;
#X text -121 237 pD;
#X text -102 262 pB;
#X msg -305 71 set 0 2 4 7 9;
#X msg -291 98 set 0 3 5 7 11;
#X msg -278 124 set 0 1 3 7 10;
#X msg -265 153 set 0 1 5 6 10;
#X msg -250 182 set 0 1 5 7 8;
#X msg -232 209 set 0 2 3 7 8;
#X msg -214 236 set 0 2 3 7 9;
#X msg -196 264 set 0 1 3 6 8;
#X text -370 249 list of semitone distances \;;
#X msg -180 292 set 0 2 5 7 10;
#X msg -163 323 set 0 4 6 7 11;
#X msg -307 364 0 2 4 7 9;
#X text -272 444 add scale degree offset \; in semitones to root note
;
#X connect 0 0 5 0;
#X connect 1 0 0 1;
#X connect 2 0 35 0;
#X connect 2 1 12 1;
#X connect 5 0 8 0;
#X connect 9 0 2 0;
#X connect 10 0 20 0;
#X connect 11 0 1 0;
#X connect 12 0 0 0;
#X connect 20 0 24 0;
#X connect 20 1 25 0;
#X connect 20 2 26 0;
#X connect 20 3 27 0;
#X connect 20 4 28 0;
#X connect 20 5 29 0;
#X connect 20 6 30 0;
#X connect 20 7 31 0;
#X connect 20 8 33 0;
#X connect 20 9 34 0;
#X connect 24 0 35 0;
#X connect 25 0 35 0;
#X connect 26 0 35 0;
#X connect 27 0 35 0;
#X connect 28 0 35 0;
#X connect 29 0 35 0;
#X connect 30 0 35 0;
#X connect 31 0 35 0;
#X connect 33 0 35 0;
#X connect 34 0 35 0;
#X connect 35 0 12 0;
