#N canvas 888 466 737 500 10;
#X obj -21 -349 r accY;
#X obj -109 -323 position;
#X obj -109 -349 r accX;
#X obj -188 -348 WiimoteOSC;
#X floatatom -109 -295 5 0 0 0 - - -;
#X obj 63 -97 bells/vibe-bar;
#X obj -77 -35 hradio 15 1 0 10 empty empty Scale 0 -8 0 10 -204800
-4160 -1 8;
#X text 141 -191 decay;
#X obj -109 -192 scales;
#X obj 200 -336 tgl 15 0 empty empty empty 17 7 0 10 -262144 -1 -1
1 1;
#X text 222 -335 audio ON/OFF;
#X msg 200 -300 \; pd dsp \$1;
#X msg 76 -171 60;
#X obj -109 -269 t f b b;
#X msg 144 -174 2000;
#X obj -21 -266 hit;
#X floatatom 81 71 5 0 0 0 - - -;
#X floatatom 81 101 5 0 0 0 - - -;
#X obj -180 -2 loadbang;
#X msg -138 70 0.7;
#X obj -79 -3 hradio 20 1 0 5 empty empty Position 0 -8 0 10 -204800
-4160 -1 0;
#X obj -144 -29 - 1;
#X obj -74 71 hsl 145 15 0.5 0.99 0 0 empty empty hit_limit -2 -8 0
10 -262144 -1 -1 5878 1;
#X obj -75 101 hsl 145 15 10 100 0 0 empty empty hit_refresh_time(ms)
-2 -8 0 10 -262144 -1 -1 7200 1;
#X obj 49 -352 loadbang;
#X text -144 55 limit;
#X text -146 85 rfrsh;
#X obj 25 -2 bng 20 250 50 0 empty empty Hit 3 -7 0 10 -262144 -4160
-1;
#X obj -63 -139 f;
#X obj 77 -36 nbx 3 20 1 128 0 0 empty empty Root_note -4 -5 0 9 -204800
-1 -1 60 256;
#X obj 76 -3 nbx 4 20 500 4000 0 0 empty empty Decay 0 -5 0 9 -204800
-1 -1 2000 256;
#X text 241 -192 freq;
#X text 72 -189 root;
#X text 278 -192 shape;
#X text -112 -369 Position;
#X text -23 -368 Strike;
#X text 76 -115 Synthesis;
#X msg 244 -175 5;
#X text -186 -139 Send note if hit;
#X text -190 -213 Compute note relative to scale \, position;
#X msg 283 -176 0.1;
#X obj 50 -2 bng 20 250 50 0 empty empty Damp -1 -7 0 10 -262144 -4160
-1;
#X floatatom 80 39 5 0 0 0 - - -;
#X obj -76 39 hsl 145 15 10 150 0 0 empty empty position_responsiveness
-2 -8 0 10 -262144 -1 -1 4114 1;
#X msg -140 37 50;
#N canvas 1013 108 450 300 control_scale 0;
#X obj 26 107 f;
#X obj 57 107 + 1;
#X msg 81 56 0;
#X obj 15 68 bng 15 250 50 0 empty empty empty 17 7 0 10 -262144 -1
-1;
#X floatatom 102 222 5 0 0 0 - - -;
#X obj 78 9 loadbang;
#X obj 10 2 inlet;
#X obj 102 249 outlet;
#X obj 10 28 select 1;
#X obj 103 195 mod 10;
#X obj 170 9 inlet;
#X obj 171 108 f;
#X msg 240 69 0;
#X obj 171 83 bng 15 250 50 0 empty empty empty 17 7 0 10 -262144 -1
-1;
#X obj 238 15 loadbang;
#X obj 172 49 select 1;
#X obj 201 108 - 1;
#X obj 103 156 f;
#X connect 0 0 1 0;
#X connect 0 0 17 0;
#X connect 0 0 11 1;
#X connect 1 0 0 1;
#X connect 2 0 0 1;
#X connect 2 0 17 1;
#X connect 3 0 0 0;
#X connect 4 0 7 0;
#X connect 5 0 2 0;
#X connect 6 0 8 0;
#X connect 8 0 3 0;
#X connect 9 0 4 0;
#X connect 10 0 15 0;
#X connect 11 0 16 0;
#X connect 11 0 17 0;
#X connect 11 0 0 1;
#X connect 12 0 11 1;
#X connect 13 0 11 0;
#X connect 14 0 12 0;
#X connect 15 0 13 0;
#X connect 16 0 11 1;
#X connect 17 0 9 0;
#X restore 336 -316 pd control_scale;
#X obj 336 -282 s rscale;
#X obj -134 -67 r rscale;
#X obj 336 -348 r plus;
#X obj 385 -347 r minus;
#X msg -139 99 55;
#X obj 156 -60 effects;
#X obj 466 -308 select 1;
#X obj 464 -348 r btA;
#X obj 469 -278 s rdamp;
#X obj 154 -31 r rdamp;
#X connect 0 0 15 0;
#X connect 1 0 4 0;
#X connect 1 0 51 5;
#X connect 2 0 1 0;
#X connect 4 0 13 0;
#X connect 5 0 51 0;
#X connect 6 0 8 1;
#X connect 8 0 28 1;
#X connect 9 0 11 0;
#X connect 12 0 29 0;
#X connect 13 0 8 0;
#X connect 13 0 21 0;
#X connect 13 1 6 0;
#X connect 13 2 29 0;
#X connect 14 0 5 1;
#X connect 14 0 30 0;
#X connect 15 0 27 0;
#X connect 15 0 28 0;
#X connect 18 0 19 0;
#X connect 18 0 50 0;
#X connect 18 0 44 0;
#X connect 19 0 22 0;
#X connect 21 0 20 0;
#X connect 22 0 15 1;
#X connect 22 0 16 0;
#X connect 23 0 15 2;
#X connect 23 0 17 0;
#X connect 24 0 12 0;
#X connect 24 0 14 0;
#X connect 24 0 37 0;
#X connect 24 0 40 0;
#X connect 27 0 28 0;
#X connect 27 0 51 1;
#X connect 28 0 5 0;
#X connect 29 0 8 2;
#X connect 30 0 5 1;
#X connect 37 0 51 3;
#X connect 40 0 51 4;
#X connect 41 0 51 2;
#X connect 43 0 42 0;
#X connect 43 0 1 1;
#X connect 44 0 43 0;
#X connect 45 0 46 0;
#X connect 47 0 6 0;
#X connect 48 0 45 0;
#X connect 49 0 45 1;
#X connect 50 0 23 0;
#X connect 52 0 54 0;
#X connect 53 0 52 0;
#X connect 55 0 41 0;
