#N canvas 901 384 450 300 10;
#X obj 63 44 inlet~;
#X obj 125 31 inlet;
#X obj 200 33 inlet;
#X obj 110 114 osc~ 10;
#X obj 125 53 select 0;
#X obj 78 231 *~;
#X obj 109 144 *~;
#X obj 109 166 clip~ -1 1;
#X obj 109 188 *~ 0.5;
#X obj 109 210 +~ 0.5;
#X obj 125 74 bng 15 250 50 0 empty empty empty 17 7 0 10 -262144 -1
-1;
#X msg 125 94 0;
#X obj 78 253 outlet~;
#X obj 200 55 rh_scalelog 1 100;
#X text 242 31 shape (0-1);
#X text 127 11 freq;
#X connect 0 0 5 0;
#X connect 1 0 3 0;
#X connect 1 0 4 0;
#X connect 2 0 13 0;
#X connect 3 0 6 0;
#X connect 4 0 10 0;
#X connect 5 0 12 0;
#X connect 6 0 7 0;
#X connect 7 0 8 0;
#X connect 8 0 9 0;
#X connect 9 0 5 1;
#X connect 10 0 11 0;
#X connect 11 0 3 1;
#X connect 13 0 6 1;
