#N canvas 0 0 699 578 10;
#X obj 164 121 list split 4;
#X obj 203 147 list split 4;
#X obj 242 175 list split 4;
#X obj 281 201 list split 4;
#X obj 320 227 list split 4;
#X obj 359 253 list split 4;
#X obj 398 289 list split 4;
#X obj 437 319 strike;
#X obj 281 384 outlet~;
#X obj 164 88 inlet;
#X obj 164 315 ptl0~;
#X obj 203 316 ptl0~;
#X obj 242 317 ptl0~;
#X obj 281 318 ptl0~;
#X obj 320 317 ptl0~;
#X obj 359 318 ptl0~;
#X obj 398 319 ptl0~;
#X connect 0 0 10 0;
#X connect 0 1 1 0;
#X connect 1 0 11 0;
#X connect 1 1 2 0;
#X connect 2 0 12 0;
#X connect 2 1 3 0;
#X connect 3 0 13 0;
#X connect 3 1 4 0;
#X connect 4 0 14 0;
#X connect 4 1 5 0;
#X connect 5 0 15 0;
#X connect 5 1 6 0;
#X connect 6 0 16 0;
#X connect 6 1 7 0;
#X connect 7 0 8 0;
#X connect 9 0 0 0;
#X connect 10 0 8 0;
#X connect 11 0 8 0;
#X connect 12 0 8 0;
#X connect 13 0 8 0;
#X connect 14 0 8 0;
#X connect 15 0 8 0;
#X connect 16 0 8 0;
