#N canvas 0 0 867 561 10;
#X obj 13 505 dac~;
#X msg 14 219 377 0.6 124 18000 620.5 0.7 100 12000 825.5 0.9 4 12000
1162 1 4 9000 1376 0.7 4 8000 2032.5 0.5 4 7000 2753.5 0.4 4 6000;
#X obj 14 408 abell~;
#X msg 64 273 345.5 0.6 124 18000 577 0.7 100 12000 750.5 0.9 4 12000
1064 1 4 9000 1244 0.7 4 8000 1831 0.5 4 7000 2483 0.4 4 6000;
#X msg 114 324 296 0.6 124 18000 499 0.7 100 12000 665 0.9 4 12000
874 1 4 9000 1114 0.7 4 8000 1647 0.5 4 7000 2241 0.4 4 6000;
#X msg 163 365 285.5 0.6 124 18000 483 0.7 100 12000 626 0.9 4 12000
855.5 1 4 9000 1044 0.7 4 8000 1546.5 0.5 4 7000 2119 0.4 4 6000;
#X obj 64 408 abell~;
#X obj 114 408 abell~;
#X obj 163 409 abell~;
#X msg 322 9 261 0.6 124 18000 432 0.7 100 12000 564 0.9 4 12000 760.5
1 4 9000 928 0.7 4 8000 1366 0.5 4 7000 1858 0.4 4 6000;
#X msg 321 43 234.5 0.6 124 18000 410 0.7 100 12000 514 0.9 4 12000
672 1 4 9000 842 0.7 4 8000 1239 0.5 4 7000 1697 0.4 4 6000;
#X msg 322 78 201 0.6 124 18000 360 0.7 100 12000 444 0.9 4 12000 598
1 4 9000 740 0.7 4 8000 1103 0.5 4 7000 1517 0.4 4 6000;
#X msg 323 113 186 0.6 124 18000 365 0.7 427 12000 427 0.9 4 12000
552.5 1 4 9000 695.5 0.7 4 8000 1025.5 0.5 4 7000 1404.5 0.4 4 6000
;
#X obj 14 471 *~ 0.3;
#X msg 324 147 175 0.6 124 18000 304 0.7 427 12000 376 0.9 4 12000
514.5 1 4 9000 616 0.7 4 8000 908 0.5 4 7000 1243 0.4 4 6000;
#X msg 322 181 159 0.6 124 18000 283.5 0.7 427 12000 343 0.9 4 12000
453.5 1 4 9000 558 0.7 4 8000 823 0.5 4 7000 1126 0.4 4 6000;
#X connect 1 0 2 0;
#X connect 2 0 13 0;
#X connect 3 0 6 0;
#X connect 4 0 7 0;
#X connect 5 0 8 0;
#X connect 6 0 13 0;
#X connect 7 0 13 0;
#X connect 8 0 13 0;
#X connect 9 0 2 0;
#X connect 10 0 6 0;
#X connect 11 0 7 0;
#X connect 12 0 8 0;
#X connect 13 0 0 0;
#X connect 13 0 0 1;
#X connect 14 0 2 0;
#X connect 15 0 2 0;
