#N canvas 102 136 995 574 10;
#X obj 523 526 dac~;
#X obj 119 180 bng 15 250 50 0 empty empty empty 0 -6 0 8 -262144 -1
-1;
#X obj 119 206 player~ bell1.wav;
#X obj 376 180 bng 15 250 50 0 empty empty empty 0 -6 0 8 -262144 -1
-1;
#X obj 379 203 player~ bell3.wav;
#X obj 506 179 bng 15 250 50 0 empty empty empty 0 -6 0 8 -262144 -1
-1;
#X obj 124 279 bng 15 250 50 0 empty empty empty 0 -6 0 8 -262144 -1
-1;
#X obj 509 202 player~ bell4.wav;
#X obj 124 304 player~ bell5.wav;
#X obj 257 280 bng 15 250 50 0 empty empty empty 0 -6 0 8 -262144 -1
-1;
#X obj 389 280 bng 15 250 50 0 empty empty empty 0 -6 0 8 -262144 -1
-1;
#X obj 519 279 bng 15 250 50 0 empty empty empty 0 -6 0 8 -262144 -1
-1;
#X obj 260 303 player~ bell6.wav;
#X obj 392 301 player~ bell7.wav;
#X obj 520 302 player~ bell8.wav;
#X obj 250 184 bng 15 250 50 0 empty empty empty 0 -6 0 8 -262144 -1
-1;
#X obj 251 207 player~ bell2.wav;
#X obj 411 390 *~ 0.1;
#X obj 240 4 tgl 15 0 empty empty empty 0 -6 0 8 -262144 -1 -1 1 1
;
#X obj 645 278 bng 15 250 50 0 empty empty empty 0 -6 0 8 -262144 -1
-1;
#X obj 772 278 bng 15 250 50 0 empty empty empty 0 -6 0 8 -262144 -1
-1;
#X obj 646 301 player~ bell9.wav;
#X obj 773 301 player~ bell10.wav;
#X obj 280 126 sel 0 1 2 3 4 5 6 7 8 9;
#X obj 260 70 f;
#X obj 296 69 + 1;
#N canvas 0 0 450 300 env 0;
#X obj 131 68 vline~;
#X obj 133 92 *~;
#X obj 118 116 *~;
#X msg 132 41 1 \, 0.7 200 0 \, 0 9000 200;
#X obj 133 18 inlet;
#X obj 77 16 inlet~;
#X obj 117 145 outlet~;
#X connect 0 0 1 0;
#X connect 0 0 1 1;
#X connect 1 0 2 1;
#X connect 2 0 6 0;
#X connect 3 0 0 0;
#X connect 4 0 3 0;
#X connect 5 0 2 0;
#X restore 119 233 pd env;
#N canvas 0 0 450 300 env 0;
#X obj 131 68 vline~;
#X obj 133 92 *~;
#X obj 118 116 *~;
#X msg 132 41 1 \, 0.7 200 0 \, 0 9000 200;
#X obj 133 18 inlet;
#X obj 77 16 inlet~;
#X obj 117 145 outlet~;
#X connect 0 0 1 0;
#X connect 0 0 1 1;
#X connect 1 0 2 1;
#X connect 2 0 6 0;
#X connect 3 0 0 0;
#X connect 4 0 3 0;
#X connect 5 0 2 0;
#X restore 251 229 pd env;
#N canvas 0 0 450 300 env 0;
#X obj 131 68 vline~;
#X obj 133 92 *~;
#X obj 118 116 *~;
#X msg 132 41 1 \, 0.7 200 0 \, 0 9000 200;
#X obj 133 18 inlet;
#X obj 77 16 inlet~;
#X obj 117 145 outlet~;
#X connect 0 0 1 0;
#X connect 0 0 1 1;
#X connect 1 0 2 1;
#X connect 2 0 6 0;
#X connect 3 0 0 0;
#X connect 4 0 3 0;
#X connect 5 0 2 0;
#X restore 383 229 pd env;
#N canvas 0 0 450 300 env 0;
#X obj 131 68 vline~;
#X obj 133 92 *~;
#X obj 118 116 *~;
#X msg 132 41 1 \, 0.7 200 0 \, 0 9000 200;
#X obj 133 18 inlet;
#X obj 77 16 inlet~;
#X obj 117 145 outlet~;
#X connect 0 0 1 0;
#X connect 0 0 1 1;
#X connect 1 0 2 1;
#X connect 2 0 6 0;
#X connect 3 0 0 0;
#X connect 4 0 3 0;
#X connect 5 0 2 0;
#X restore 515 225 pd env;
#N canvas 0 0 450 300 env 0;
#X obj 131 68 vline~;
#X obj 133 92 *~;
#X obj 118 116 *~;
#X msg 132 41 1 \, 0.7 200 0 \, 0 9000 200;
#X obj 133 18 inlet;
#X obj 77 16 inlet~;
#X obj 117 145 outlet~;
#X connect 0 0 1 0;
#X connect 0 0 1 1;
#X connect 1 0 2 1;
#X connect 2 0 6 0;
#X connect 3 0 0 0;
#X connect 4 0 3 0;
#X connect 5 0 2 0;
#X restore 124 331 pd env;
#N canvas 0 0 450 300 env 0;
#X obj 131 68 vline~;
#X obj 133 92 *~;
#X obj 118 116 *~;
#X msg 132 41 1 \, 0.7 200 0 \, 0 9000 200;
#X obj 133 18 inlet;
#X obj 77 16 inlet~;
#X obj 117 145 outlet~;
#X connect 0 0 1 0;
#X connect 0 0 1 1;
#X connect 1 0 2 1;
#X connect 2 0 6 0;
#X connect 3 0 0 0;
#X connect 4 0 3 0;
#X connect 5 0 2 0;
#X restore 256 327 pd env;
#N canvas 0 0 450 300 env 0;
#X obj 131 68 vline~;
#X obj 133 92 *~;
#X obj 118 116 *~;
#X msg 132 41 1 \, 0.7 200 0 \, 0 9000 200;
#X obj 133 18 inlet;
#X obj 77 16 inlet~;
#X obj 117 145 outlet~;
#X connect 0 0 1 0;
#X connect 0 0 1 1;
#X connect 1 0 2 1;
#X connect 2 0 6 0;
#X connect 3 0 0 0;
#X connect 4 0 3 0;
#X connect 5 0 2 0;
#X restore 388 327 pd env;
#N canvas 0 0 450 300 env 0;
#X obj 131 68 vline~;
#X obj 133 92 *~;
#X obj 118 116 *~;
#X msg 132 41 1 \, 0.7 200 0 \, 0 9000 200;
#X obj 133 18 inlet;
#X obj 77 16 inlet~;
#X obj 117 145 outlet~;
#X connect 0 0 1 0;
#X connect 0 0 1 1;
#X connect 1 0 2 1;
#X connect 2 0 6 0;
#X connect 3 0 0 0;
#X connect 4 0 3 0;
#X connect 5 0 2 0;
#X restore 520 323 pd env;
#N canvas 0 0 450 300 env 0;
#X obj 131 68 vline~;
#X obj 133 92 *~;
#X obj 118 116 *~;
#X msg 132 41 1 \, 0.7 200 0 \, 0 9000 200;
#X obj 133 18 inlet;
#X obj 77 16 inlet~;
#X obj 117 145 outlet~;
#X connect 0 0 1 0;
#X connect 0 0 1 1;
#X connect 1 0 2 1;
#X connect 2 0 6 0;
#X connect 3 0 0 0;
#X connect 4 0 3 0;
#X connect 5 0 2 0;
#X restore 645 325 pd env;
#N canvas 0 0 450 300 env 0;
#X obj 131 68 vline~;
#X obj 133 92 *~;
#X obj 118 116 *~;
#X msg 132 41 1 \, 0.7 200 0 \, 0 9000 200;
#X obj 133 18 inlet;
#X obj 77 16 inlet~;
#X obj 117 145 outlet~;
#X connect 0 0 1 0;
#X connect 0 0 1 1;
#X connect 1 0 2 1;
#X connect 2 0 6 0;
#X connect 3 0 0 0;
#X connect 4 0 3 0;
#X connect 5 0 2 0;
#X restore 777 321 pd env;
#X floatatom 577 466 5 0 0 0 - - -;
#X floatatom 628 467 5 0 0 0 - - -;
#X msg 815 47 linear 32 100 105;
#X msg 814 70 linear 32 1000 1005;
#X obj 503 498 fdn~ 64 40000;
#X msg 812 126 exponential 32 10 5000;
#X msg 814 91 linear 32 100 2015;
#X msg 815 23 linear 8 75 100;
#X msg 815 0 linear 32 50 2175;
#X msg 814 173 exponential 8 50 175;
#X text 677 503 creation arguments: <max nb delaylines> <total delay
memory in ms>;
#X msg 812 150 exponential 64 1000 10;
#X obj 411 417 hip~ 300;
#X obj 241 32 metro 300;
#X obj 316 21 + 300;
#X obj 369 38 random 12;
#X obj 244 49 t b b;
#X obj 273 93 mod 10;
#X connect 1 0 2 0;
#X connect 1 0 26 1;
#X connect 2 0 26 0;
#X connect 3 0 4 0;
#X connect 3 0 28 1;
#X connect 4 0 28 0;
#X connect 5 0 7 0;
#X connect 5 0 29 1;
#X connect 6 0 8 0;
#X connect 6 0 30 1;
#X connect 7 0 29 0;
#X connect 8 0 30 0;
#X connect 9 0 12 0;
#X connect 9 0 31 1;
#X connect 10 0 13 0;
#X connect 10 0 32 1;
#X connect 11 0 14 0;
#X connect 11 0 33 1;
#X connect 12 0 31 0;
#X connect 13 0 32 0;
#X connect 14 0 33 0;
#X connect 15 0 16 0;
#X connect 15 0 27 1;
#X connect 16 0 27 0;
#X connect 17 0 48 0;
#X connect 18 0 49 0;
#X connect 19 0 21 0;
#X connect 19 0 34 1;
#X connect 20 0 22 0;
#X connect 20 0 35 1;
#X connect 21 0 34 0;
#X connect 22 0 35 0;
#X connect 23 0 1 0;
#X connect 23 1 15 0;
#X connect 23 2 3 0;
#X connect 23 3 5 0;
#X connect 23 4 6 0;
#X connect 23 5 9 0;
#X connect 23 6 10 0;
#X connect 23 7 11 0;
#X connect 23 8 19 0;
#X connect 23 9 20 0;
#X connect 24 0 25 0;
#X connect 24 0 53 0;
#X connect 25 0 24 1;
#X connect 26 0 17 0;
#X connect 27 0 17 0;
#X connect 28 0 17 0;
#X connect 29 0 17 0;
#X connect 30 0 17 0;
#X connect 31 0 17 0;
#X connect 32 0 17 0;
#X connect 33 0 17 0;
#X connect 34 0 17 0;
#X connect 35 0 17 0;
#X connect 36 0 40 1;
#X connect 37 0 40 2;
#X connect 38 0 40 0;
#X connect 39 0 40 0;
#X connect 40 0 0 0;
#X connect 40 1 0 1;
#X connect 41 0 40 0;
#X connect 42 0 40 0;
#X connect 43 0 40 0;
#X connect 44 0 40 0;
#X connect 45 0 40 0;
#X connect 47 0 40 0;
#X connect 48 0 40 0;
#X connect 48 0 0 0;
#X connect 48 0 0 1;
#X connect 49 0 52 0;
#X connect 50 0 49 1;
#X connect 51 0 50 0;
#X connect 52 0 24 0;
#X connect 52 1 51 0;
#X connect 53 0 23 0;
