#N canvas 0 0 355 421 10;
#X obj 72 207 soundfiler;
#X obj 72 276 outlet~;
#X msg 72 184 read -resize \$1 \$2;
#X obj 72 162 pack s s;
#X obj 72 115 t a b;
#X msg 72 229 bang;
#X obj 26 73 inlet;
#X obj 72 63 loadbang;
#X obj 72 86 symbol \$1;
#X obj 133 231 table \$0-a;
#X obj 72 253 tabplay~ \$0-a;
#X obj 102 136 symbol \$0-a;
#X connect 2 0 0 0;
#X connect 3 0 2 0;
#X connect 4 0 3 0;
#X connect 4 1 11 0;
#X connect 5 0 10 0;
#X connect 6 0 5 0;
#X connect 7 0 8 0;
#X connect 8 0 4 0;
#X connect 10 0 1 0;
#X connect 11 0 3 1;
