#N canvas 0 0 472 413 10;
#X obj 92 251 *~;
#X obj 140 204 vline~;
#X obj 101 117 list split 1;
#X obj 92 277 outlet~;
#X obj 101 40 inlet;
#X msg 140 181 0 3 0 \, \$1 \$2 3 \, 0 \$3 \$2;
#X obj 101 69 t a b;
#X obj 233 286 switch~;
#X obj 233 226 env~;
#X msg 266 247 1;
#X obj 233 247 > 1;
#X obj 67 179 phasor~;
#X obj 68 205 cos~;
#X connect 0 0 3 0;
#X connect 0 0 8 0;
#X connect 1 0 0 1;
#X connect 2 0 11 0;
#X connect 2 1 5 0;
#X connect 4 0 6 0;
#X connect 5 0 1 0;
#X connect 6 0 2 0;
#X connect 6 1 9 0;
#X connect 8 0 10 0;
#X connect 9 0 7 0;
#X connect 10 0 7 0;
#X connect 11 0 12 0;
#X connect 12 0 0 0;
