#N canvas 0 0 472 413 10;
#X obj 92 251 *~;
#X obj 140 204 vline~;
#X obj 101 117 list split 1;
#X obj 92 277 outlet~;
#X obj 101 40 inlet;
#X obj 101 69 t a b;
#X obj 233 286 switch~;
#X obj 233 226 env~;
#X msg 266 247 1;
#X obj 233 247 > 1;
#X msg 140 181 \$1 0 0 \, 0 \$2 1;
#X obj 18 151 r~ vib;
#X obj 68 205 osc~;
#X obj 68 152 sig~;
#X obj 68 182 +~;
#X connect 0 0 3 0;
#X connect 0 0 7 0;
#X connect 1 0 0 1;
#X connect 2 0 13 0;
#X connect 2 1 10 0;
#X connect 4 0 5 0;
#X connect 5 0 2 0;
#X connect 5 1 8 0;
#X connect 7 0 9 0;
#X connect 8 0 6 0;
#X connect 9 0 6 0;
#X connect 10 0 1 0;
#X connect 11 0 14 0;
#X connect 12 0 0 0;
#X connect 13 0 14 1;
#X connect 14 0 12 0;
