#N canvas 0 0 472 413 10;
#X obj 86 200 osc~;
#X obj 92 251 *~;
#X obj 140 204 vline~;
#X obj 101 117 list split 1;
#X obj 92 277 outlet~;
#X obj 101 40 inlet;
#X msg 140 181 0 3 0 \, \$1 \$2 3 \, 0 \$3 \$2;
#X obj 36 42 noise~;
#X obj 86 174 +~;
#X obj 101 142 sig~;
#X obj 37 64 lop~ 0.2;
#X obj 70 223 *~;
#X obj 38 86 lop~ 0.2;
#X obj 14 189 +~ 0.7;
#X obj 37 139 *~ 320;
#X obj 13 168 *~ 80;
#X obj 101 69 t a b;
#X obj 233 286 switch~;
#X obj 233 226 env~;
#X msg 266 247 1;
#X obj 233 247 > 1;
#X connect 0 0 11 1;
#X connect 1 0 4 0;
#X connect 1 0 18 0;
#X connect 2 0 1 1;
#X connect 3 0 9 0;
#X connect 3 1 6 0;
#X connect 5 0 16 0;
#X connect 6 0 2 0;
#X connect 7 0 10 0;
#X connect 8 0 0 0;
#X connect 9 0 8 1;
#X connect 10 0 12 0;
#X connect 11 0 1 0;
#X connect 12 0 14 0;
#X connect 12 0 15 0;
#X connect 13 0 11 0;
#X connect 14 0 8 0;
#X connect 15 0 13 0;
#X connect 16 0 3 0;
#X connect 16 1 19 0;
#X connect 18 0 20 0;
#X connect 19 0 17 0;
#X connect 20 0 17 0;
