#N canvas 12 32 231 400 10;
#X obj 13 68 osc~ 1250;
#X obj 14 109 +~ 42500;
#X obj 14 162 osc~;
#X obj 31 208 vline~;
#X obj 14 258 *~;
#X obj 14 137 +~;
#X obj 76 88 noise~;
#X obj 76 110 *~ 234;
#X obj 13 88 *~ 2000;
#X obj 31 232 *~;
#X msg 31 185 0.2 0 0 \, 0 399 1;
#X obj 71 332 switch~;
#X obj 71 287 env~;
#X msg 104 308 1;
#X obj 71 308 > 1;
#X obj 13 287 outlet~;
#X obj 31 12 inlet;
#X obj 31 34 t b b;
#X connect 0 0 8 0;
#X connect 1 0 5 0;
#X connect 2 0 4 0;
#X connect 3 0 9 0;
#X connect 3 0 9 1;
#X connect 4 0 15 0;
#X connect 4 0 12 0;
#X connect 5 0 2 0;
#X connect 6 0 7 0;
#X connect 7 0 5 1;
#X connect 8 0 1 0;
#X connect 9 0 4 1;
#X connect 10 0 3 0;
#X connect 12 0 14 0;
#X connect 13 0 11 0;
#X connect 14 0 11 0;
#X connect 16 0 17 0;
#X connect 17 0 10 0;
#X connect 17 1 13 0;
