#N canvas 124 163 867 671 10;
#X obj 191 245 * 2.75654;
#X obj 265 243 * 3;
#X obj 299 243 * 5.40392;
#X obj 377 242 * 6;
#X obj 413 241 * 8.93295;
#X obj 492 240 * 13.3443;
#X obj 210 170 t f f f f f f f;
#X obj 204 84 mtof;
#X obj 215 291 * 1;
#X obj 388 178 t f f f f f f f;
#X obj 262 291 * 0.8;
#X obj 324 288 * 0.7;
#X obj 371 288 * 0.6;
#X obj 419 288 * 0.53;
#X obj 472 288 * 0.5;
#X obj 527 287 * 0.53;
#X obj 155 366 pack f f f f f f f f f f f f f f f f f f f f f;
#X obj 205 448 bar~;
#X msg 253 49 65;
#X obj 155 246 * 1;
#X obj 549 190 unpack f f f f f f f;
#X msg 294 48 67;
#X obj 127 48 osc~ 5;
#X obj 128 71 *~ 4;
#X obj 128 94 s~ vib;
#X msg 549 166 0.9 0.4 0.1 0.5 0.4 0.05 0.2 0.17;
#X text 556 144 partial amplitudes;
#X text 385 127 decay (all);
#X obj 205 414 route 0 1 2 3;
#X obj 73 247 f;
#X obj 101 248 + 1;
#X obj 73 272 mod 4;
#X obj 209 116 t a b b b;
#X obj 39 400 list prepend;
#X obj 241 447 bar~;
#X obj 279 447 bar~;
#X obj 315 446 bar~;
#X msg 211 52 63;
#X msg 331 46 69;
#X obj 183 16 inlet;
#X obj 397 17 inlet;
#X text 222 15 note;
#X text 435 17 decay;
#X obj 393 107 f;
#X obj 219 522 outlet~;
#X obj 280 561 dac~;
#X obj 282 527 *~ 0.1;
#X connect 0 0 16 3;
#X connect 1 0 16 6;
#X connect 2 0 16 9;
#X connect 3 0 16 12;
#X connect 4 0 16 15;
#X connect 5 0 16 18;
#X connect 6 0 19 0;
#X connect 6 1 0 0;
#X connect 6 2 1 0;
#X connect 6 3 2 0;
#X connect 6 4 3 0;
#X connect 6 5 4 0;
#X connect 6 6 5 0;
#X connect 7 0 32 0;
#X connect 8 0 16 2;
#X connect 9 0 8 0;
#X connect 9 1 10 0;
#X connect 9 2 11 0;
#X connect 9 3 12 0;
#X connect 9 4 13 0;
#X connect 9 5 14 0;
#X connect 9 6 15 0;
#X connect 10 0 16 5;
#X connect 11 0 16 8;
#X connect 12 0 16 11;
#X connect 13 0 16 14;
#X connect 14 0 16 17;
#X connect 15 0 16 20;
#X connect 16 0 33 0;
#X connect 17 0 44 0;
#X connect 17 0 46 0;
#X connect 18 0 7 0;
#X connect 19 0 16 0;
#X connect 20 0 16 1;
#X connect 20 1 16 4;
#X connect 20 2 16 7;
#X connect 20 3 16 10;
#X connect 20 4 16 13;
#X connect 20 5 16 16;
#X connect 20 6 16 19;
#X connect 21 0 7 0;
#X connect 22 0 23 0;
#X connect 23 0 24 0;
#X connect 25 0 20 0;
#X connect 28 0 17 0;
#X connect 28 1 34 0;
#X connect 28 2 35 0;
#X connect 28 3 36 0;
#X connect 29 0 30 0;
#X connect 29 0 31 0;
#X connect 30 0 29 1;
#X connect 31 0 33 1;
#X connect 32 0 6 0;
#X connect 32 1 43 0;
#X connect 32 2 25 0;
#X connect 32 3 29 0;
#X connect 33 0 28 0;
#X connect 34 0 44 0;
#X connect 34 0 46 0;
#X connect 35 0 44 0;
#X connect 35 0 46 0;
#X connect 36 0 44 0;
#X connect 36 0 46 0;
#X connect 37 0 7 0;
#X connect 38 0 7 0;
#X connect 39 0 7 0;
#X connect 40 0 43 1;
#X connect 43 0 9 0;
#X connect 46 0 45 0;
#X connect 46 0 45 1;
